<svg width="512" height="640" xmlns="http://www.w3.org/2000/svg" xmlns:svg="http://www.w3.org/2000/svg">
 <g>
  <title>Layer 1</title>
  <path fill="#bbbbbb" id="svg_1" d="m507,249l-81.3,-66.2c-6.4,-6.4 -17.3,-1.9 -17.3,7.2l0,40.7l-127,0l0,-127l40.7,0c9,0 13.5,-10.9 7.2,-17.3l-66,-81.4c-4,-4 -10.4,-4 -14.3,0l-66.2,81.3c-6.4,6.4 -1.9,17.3 7.2,17.3l40.7,0l0,127l-127,0l0,-40.7c0,-9 -10.9,-13.5 -17.3,-7.2l-81.4,66c-4,4 -4,10.4 0,14.3l81.3,66.2c6.4,6.4 17.3,1.9 17.3,-7.2l0,-40.7l127,0l0,127l-40.7,0c-9,0 -13.5,10.9 -7.2,17.3l65.9,81.3c4,4 10.4,4 14.3,0l66.2,-81.3c6.4,-6.4 1.9,-17.3 -7.2,-17.3l-40.7,0l0,-127l127,0l0,40.7c0,9 10.9,13.5 17.3,7.2l81.3,-65.9c4.2,-4 4.2,-10.4 0.2,-14.3z"/>
 </g>
</svg>
